<svg width="61" height="19" viewBox="0 0 61 19" fill="none" xmlns="http://www.w3.org/2000/svg">
<path d="M4.38933 15.4377V3.80879H7.32941V15.4377H4.38933ZM0.0449144 11.0933V8.1532H11.6738V11.0933H0.0449144ZM27.7519 1.18078V18H24.1958V4.55612H24.0973L20.2456 6.9706V3.817L24.4094 1.18078H27.7519ZM38.3439 18.3696C36.9314 18.3641 35.7159 18.0164 34.6976 17.3266C33.6847 16.6367 32.9045 15.6375 32.357 14.329C31.815 13.0205 31.5467 11.4464 31.5522 9.60682C31.5522 7.77269 31.8232 6.20958 32.3652 4.91747C32.9127 3.62537 33.6929 2.64261 34.7058 1.96919C35.7242 1.29028 36.9369 0.950834 38.3439 0.950834C39.751 0.950834 40.961 1.29028 41.9739 1.96919C42.9922 2.64809 43.7751 3.63359 44.3227 4.92569C44.8702 6.21231 45.1412 7.77269 45.1357 9.60682C45.1357 11.4519 44.8619 13.0287 44.3144 14.3372C43.7724 15.6457 42.995 16.6449 41.9821 17.3348C40.9692 18.0246 39.7565 18.3696 38.3439 18.3696ZM38.3439 15.4213C39.3075 15.4213 40.0768 14.9367 40.6517 13.9677C41.2265 12.9986 41.5112 11.545 41.5058 9.60682C41.5058 8.33114 41.3744 7.26899 41.1116 6.42036C40.8542 5.57174 40.4874 4.9339 40.0111 4.50685C39.5402 4.0798 38.9845 3.86627 38.3439 3.86627C37.3858 3.86627 36.6193 4.34534 36.0444 5.30346C35.4696 6.26159 35.1794 7.69604 35.1739 9.60682C35.1739 10.8989 35.3026 11.9775 35.5599 12.8425C35.8227 13.7021 36.1923 14.3482 36.6686 14.7807C37.1449 15.2077 37.7034 15.4213 38.3439 15.4213ZM47.7698 18V1.18078H54.4056C55.6812 1.18078 56.768 1.42442 57.6659 1.9117C58.5638 2.3935 59.2482 3.06419 59.719 3.92376C60.1954 4.77786 60.4335 5.76336 60.4335 6.88026C60.4335 7.99717 60.1926 8.98267 59.7108 9.83677C59.229 10.6909 58.531 11.3561 57.6166 11.8324C56.7078 12.3087 55.6073 12.5469 54.3152 12.5469H50.0858V9.69715H53.7403C54.4247 9.69715 54.9886 9.57944 55.4321 9.34402C55.8811 9.10312 56.215 8.77188 56.434 8.3503C56.6585 7.92325 56.7708 7.43324 56.7708 6.88026C56.7708 6.32181 56.6585 5.83454 56.434 5.41844C56.215 4.99686 55.8811 4.6711 55.4321 4.44115C54.9832 4.20572 54.4138 4.08801 53.7239 4.08801H51.3259V18H47.7698Z" fill="#3B6AE3"/>
</svg>
