<svg width="113" height="17" viewBox="0 0 113 17" fill="none" xmlns="http://www.w3.org/2000/svg">
<path d="M4.0199 2.56546H5.17961V3.81044C5.17961 6.62444 3.44005 9.02913 0.864811 9.98419L0.131465 8.85859C2.43383 8.03997 4.0199 5.99342 4.0199 3.81044V2.56546ZM4.29277 2.56546H5.43543V3.81044C5.43543 5.78877 6.93623 7.71593 9.17038 8.50044L8.45408 9.62604C5.94707 8.7051 4.29277 6.38568 4.29277 3.81044V2.56546ZM8.3347 5.00426H11.7627V6.18102H8.3347V5.00426ZM0.574884 2.05382H8.81223V3.19648H0.574884V2.05382ZM2.48499 11.0586H12.7689V16.4138H11.3534V12.2183H2.48499V11.0586ZM11.3534 0.99644H12.7689V10.2229H11.3534V0.99644ZM26.991 0.99644H28.4236V9.47255H26.991V0.99644ZM16.5707 7.9888H17.8157C20.6126 7.9888 22.6762 7.90353 25.1492 7.49422L25.3026 8.67099C22.7615 9.06324 20.6809 9.14851 17.8157 9.14851H16.5707V7.9888ZM16.5366 1.74684H23.529V5.9252H17.9521V8.75626H16.5707V4.81666H22.1476V2.88949H16.5366V1.74684ZM18.4467 10.24H19.8452V12.0478H27.0252V10.24H28.4236V16.2091H18.4467V10.24ZM19.8452 13.1734V15.0494H27.0252V13.1734H19.8452ZM32.6859 7.63066H40.5822V8.79037H32.6859V7.63066ZM35.841 8.5516H37.2736V12.099H35.841V8.5516ZM32.6859 2.44608H40.4969V3.60579H34.1015V8.03997H32.6859V2.44608ZM42.6117 0.979386H44.0272V16.4308H42.6117V0.979386ZM31.7479 13.0881L31.5433 11.9114C34.5619 11.8943 38.348 11.8602 41.6055 11.4679L41.7248 12.5253C38.348 13.037 34.6643 13.1052 31.7479 13.0881ZM51.0865 10.3935H52.195V11.2803C52.195 13.3269 50.933 15.3734 48.7159 16.2262L47.9996 15.1688C49.9438 14.4525 51.0865 12.7811 51.0865 11.2803V10.3935ZM51.4105 10.3935H52.4679V11.2803C52.4679 12.8494 53.3718 14.5378 55.2307 15.2882L54.6338 16.3626C52.3997 15.4928 51.4105 13.3439 51.4105 11.2803V10.3935ZM56.7997 10.3935H57.8401V11.2803C57.8401 13.1052 56.8338 15.4246 54.6338 16.3626L54.0198 15.2882C55.8617 14.4354 56.7997 12.6276 56.7997 11.2803V10.3935ZM57.0726 10.3935H58.1811V11.2803C58.1811 12.9005 59.3067 14.5036 61.2851 15.1688L60.5517 16.2262C58.3176 15.4075 57.0726 13.4292 57.0726 11.2803V10.3935ZM54.7361 4.85077H58.8122V6.02753H54.7361V4.85077ZM51.3593 1.86622C53.6276 1.86622 55.316 3.34997 55.316 5.48179C55.316 7.59655 53.6276 9.0803 51.3593 9.0803C49.0911 9.0803 47.4197 7.59655 47.4197 5.48179C47.4197 3.34997 49.0911 1.86622 51.3593 1.86622ZM51.3593 3.04299C49.8585 3.04299 48.767 4.06626 48.767 5.48179C48.767 6.89731 49.8585 7.90353 51.3593 7.90353C52.8431 7.90353 53.9516 6.89731 53.9516 5.48179C53.9516 4.06626 52.8431 3.04299 51.3593 3.04299ZM58.4199 0.99644H59.8354V9.77953H58.4199V0.99644ZM64.6094 10.24H66.0078V12.0307H73.546V10.24H74.9615V16.2091H64.6094V10.24ZM66.0078 13.1222V15.0664H73.546V13.1222H66.0078ZM62.8357 8.02291H76.7693V9.16557H62.8357V8.02291ZM69.0947 1.16699H70.3056V1.84917C70.3056 4.52673 67.321 6.45389 64.1489 6.93142L63.6373 5.82288C66.4172 5.44768 69.0947 3.79339 69.0947 1.84917V1.16699ZM69.3164 1.16699H70.5273V1.84917C70.5273 3.75928 73.239 5.44768 75.9848 5.82288L75.4561 6.93142C72.318 6.45389 69.3164 4.49262 69.3164 1.84917V1.16699ZM89.7464 0.99644H91.162V16.4138H89.7464V0.99644ZM79.5137 2.49724H80.9122V12.0478H79.5137V2.49724ZM79.5137 11.2121H80.7758C83.1122 11.2121 85.551 11.0416 88.1604 10.4958L88.3309 11.7067C85.6534 12.2524 83.2146 12.44 80.7758 12.44H79.5137V11.2121ZM104.651 0.979386H106.083V16.4308H104.651V0.979386ZM105.742 7.06786H108.607V8.26168H105.742V7.06786ZM94.8785 11.3997H96.0894C98.9375 11.3997 100.933 11.2974 103.235 10.871L103.389 12.0648C101.018 12.5083 98.9887 12.5935 96.0894 12.5935H94.8785V11.3997ZM94.8785 2.48019H102.041V3.6399H96.277V11.9284H94.8785V2.48019ZM111.416 15.1804C111.118 15.1804 110.861 15.0734 110.647 14.8594C110.433 14.6454 110.326 14.389 110.326 14.0903C110.326 13.7915 110.433 13.5351 110.647 13.3211C110.861 13.1071 111.118 13.0001 111.416 13.0001C111.715 13.0001 111.972 13.1071 112.186 13.3211C112.4 13.5351 112.507 13.7915 112.507 14.0903C112.507 14.2881 112.456 14.4698 112.355 14.6353C112.258 14.8009 112.127 14.9341 111.961 15.035C111.8 15.1319 111.618 15.1804 111.416 15.1804Z" fill="#4A4A4A"/>
</svg>
