<svg width="159" height="43" viewBox="0 0 159 43" fill="none" xmlns="http://www.w3.org/2000/svg">
<rect width="158.295" height="42.6" rx="6" fill="#467AFF"/>
<path d="M68.7952 22.204H70.6572V24.066H68.7952V22.204ZM74.2832 16.296H76.1452V25.116H74.2832V16.296ZM75.4872 19.992H77.7692V21.518H75.4872V19.992ZM65.9112 24.864L65.7012 23.422C68.0252 23.422 71.0912 23.408 73.7092 23.086L73.8492 24.36C71.1472 24.822 68.1792 24.85 65.9112 24.864ZM67.3532 25.634H76.1452V29.246H74.2832V27.062H67.3532V25.634ZM66.0372 17.234H73.3872V18.564H66.0372V17.234ZM69.7192 18.872C71.6232 18.872 72.8692 19.614 72.8692 20.804C72.8692 21.994 71.6232 22.736 69.7192 22.736C67.8012 22.736 66.5552 21.994 66.5552 20.804C66.5552 19.614 67.8012 18.872 69.7192 18.872ZM69.7192 20.09C68.8372 20.09 68.3192 20.314 68.3192 20.804C68.3192 21.266 68.8372 21.518 69.7192 21.518C70.5872 21.518 71.1052 21.266 71.1052 20.804C71.1052 20.314 70.5872 20.09 69.7192 20.09ZM68.7952 16.184H70.6572V17.836H68.7952V16.184ZM87.6381 16.296H89.5141V25.606H87.6381V16.296ZM80.8761 27.538H89.8361V29.022H80.8761V27.538ZM80.8761 24.668H82.7381V28.14H80.8761V24.668ZM82.4581 17.108C84.4461 17.108 85.9721 18.48 85.9721 20.398C85.9721 22.302 84.4461 23.688 82.4581 23.688C80.4701 23.688 78.9301 22.302 78.9301 20.398C78.9301 18.48 80.4701 17.108 82.4581 17.108ZM82.4581 18.718C81.4921 18.718 80.7501 19.334 80.7501 20.398C80.7501 21.448 81.4921 22.064 82.4581 22.064C83.4101 22.064 84.1521 21.448 84.1521 20.398C84.1521 19.334 83.4101 18.718 82.4581 18.718Z" fill="white"/>
</svg>
