<svg width="146" height="40" viewBox="0 0 146 40" fill="none" xmlns="http://www.w3.org/2000/svg">
<rect x="0.461765" y="0.461765" width="144.994" height="38.7882" rx="5.07941" fill="white" stroke="#3B6AE3" stroke-width="0.923529"/>
<path d="M58.7237 16.0056C60.5467 16.0056 61.8655 17.6605 61.8655 20.2723C61.8655 22.9099 60.5467 24.5648 58.7237 24.5648C56.9006 24.5648 55.5818 22.9099 55.5818 20.2723C55.5818 17.6605 56.9006 16.0056 58.7237 16.0056ZM58.7237 17.57C57.8315 17.57 57.2368 18.5139 57.2368 20.2723C57.2368 22.0565 57.8315 23.0133 58.7237 23.0133C59.6158 23.0133 60.2235 22.0565 60.2235 20.2723C60.2235 18.5139 59.6158 17.57 58.7237 17.57ZM63.1714 15.1781H64.9039V27.1507H63.1714V15.1781ZM64.516 19.6904H66.6365V21.1127H64.516V19.6904ZM75.699 15.1781H77.4186V27.1507H75.699V15.1781ZM68.0448 16.3159H69.7514V23.7503H68.0448V16.3159ZM68.0448 22.7418H69.105C70.8504 22.7418 72.7899 22.6125 74.7681 22.2246L74.962 23.6468C72.9062 24.0735 70.928 24.2028 69.105 24.2028H68.0448V22.7418ZM81.6972 21.2549H83.4039V24.6166H81.6972V21.2549ZM86.0415 21.2549H87.7611V24.6166H86.0415V21.2549ZM79.3182 24.3709H90.1531V25.7673H79.3182V24.3709ZM84.7227 15.7599C87.2957 15.7599 89.1963 17.027 89.1963 18.9793C89.1963 20.9317 87.2957 22.1858 84.7227 22.1858C82.1368 22.1858 80.2491 20.9317 80.2491 18.9793C80.2491 17.027 82.1368 15.7599 84.7227 15.7599ZM84.7227 17.1046C83.0548 17.1046 81.9429 17.7898 81.9429 18.9793C81.9429 20.1559 83.0548 20.8541 84.7227 20.8541C86.3906 20.8541 87.5025 20.1559 87.5025 18.9793C87.5025 17.7898 86.3906 17.1046 84.7227 17.1046Z" fill="#3B6AE3"/>
</svg>
