<svg width="159" height="39" viewBox="0 0 159 39" fill="none" xmlns="http://www.w3.org/2000/svg">
<path d="M42.3048 2.176H43.3928V3.376C43.3928 6.032 41.8088 8.24 39.3608 9.12L38.6888 8.064C40.8648 7.312 42.3048 5.44 42.3048 3.376V2.176ZM42.5448 2.176H43.6328V3.36C43.6328 5.28 45.0248 7.008 47.1528 7.728L46.5128 8.784C44.0968 7.968 42.5448 5.84 42.5448 3.36V2.176ZM39.0728 1.792H46.8168V2.864H39.0728V1.792ZM48.6568 0.783999H49.9848V9.296H48.6568V0.783999ZM49.6168 4.384H52.1288V5.488H49.6168V4.384ZM40.8968 9.952H49.9848V15.056H40.8968V9.952ZM48.6888 11.008H42.1927V13.984H48.6888V11.008ZM55.1515 1.536H64.4635V2.624H55.1515V1.536ZM53.4875 6.864H66.5915V7.952H53.4875V6.864ZM63.5995 1.536H64.8955V2.608C64.8955 3.84 64.8955 5.248 64.4155 7.248L63.1195 7.184C63.5995 5.2 63.5995 3.808 63.5995 2.608V1.536ZM55.0875 9.92H64.9435V15.056H55.0875V9.92ZM63.6475 10.976H56.3835V13.984H63.6475V10.976ZM72.4086 3.248H79.5766V4.336H72.4086V3.248ZM75.9926 5.296C77.8006 5.296 79.1126 6.656 79.1126 8.608C79.1126 10.544 77.8006 11.904 75.9926 11.904C74.2006 11.904 72.8886 10.544 72.8886 8.608C72.8886 6.656 74.2006 5.296 75.9926 5.296ZM75.9926 6.432C74.8886 6.432 74.0886 7.328 74.0886 8.608C74.0886 9.888 74.8886 10.784 75.9926 10.784C77.1126 10.784 77.9286 9.888 77.9286 8.608C77.9286 7.328 77.1126 6.432 75.9926 6.432ZM83.4006 0.783999H84.6806V15.248H83.4006V0.783999ZM81.0966 6.864H83.8326V7.968H81.0966V6.864ZM80.3126 1.104H81.5606V14.544H80.3126V1.104ZM75.3526 1.2H76.6646V3.92H75.3526V1.2ZM98.1514 0.783999H99.4314V15.248H98.1514V0.783999ZM92.8874 5.968H95.6554V7.072H92.8874V5.968ZM95.2554 1.12H96.5034V14.512H95.2554V1.12ZM90.1034 3.024H91.1274V4.864C91.1274 8.032 89.9114 11.024 87.7834 12.368L86.9674 11.376C88.9834 10.16 90.1034 7.52 90.1034 4.864V3.024ZM90.3754 3.024H91.3994V4.864C91.3994 7.376 92.4874 9.888 94.4714 11.04L93.6554 12.016C91.5434 10.736 90.3754 7.888 90.3754 4.864V3.024ZM87.3674 2.464H93.9754V3.568H87.3674V2.464ZM106.785 2.432H118.417V3.504H106.785V2.432ZM106.113 10.16H119.217V11.248H106.113V10.16ZM111.969 11.04H113.297V15.264H111.969V11.04ZM112.641 4.336C115.585 4.336 117.329 5.2 117.329 6.752C117.329 8.288 115.585 9.168 112.641 9.168C109.681 9.168 107.937 8.288 107.937 6.752C107.937 5.2 109.681 4.336 112.641 4.336ZM112.641 5.36C110.529 5.36 109.312 5.856 109.312 6.752C109.312 7.648 110.529 8.144 112.641 8.144C114.753 8.144 115.969 7.648 115.969 6.752C115.969 5.856 114.753 5.36 112.641 5.36ZM111.969 0.704H113.297V3.152H111.969V0.704ZM5.88594 29.256H8.60594V30.36H5.88594V29.256ZM0.413938 33.688H1.34194C3.56594 33.688 4.89394 33.64 6.49394 33.32L6.62194 34.408C4.97394 34.728 3.59794 34.776 1.34194 34.776H0.413938V33.688ZM0.413938 25.528H5.77394V26.6H1.67794V34.056H0.413938V25.528ZM1.29394 29.432H5.11794V30.488H1.29394V29.432ZM10.8779 23.784H12.1579V38.248H10.8779V23.784ZM7.96594 24.12H9.22994V37.512H7.96594V24.12ZM15.1647 25.224H21.8047V34.584H15.1647V25.224ZM20.5087 26.296H16.4607V33.512H20.5087V26.296ZM24.3807 23.784H25.7247V38.248H24.3807V23.784ZM25.4047 29.56H28.0927V30.68H25.4047V29.56ZM29.3074 30.504H42.4274V31.512H29.3074V30.504ZM30.8594 32.68H40.7794V35.768H32.2194V37.464H30.9074V34.856H39.4834V33.624H30.8594V32.68ZM30.9074 37.112H41.2434V38.072H30.9074V37.112ZM30.9714 24.2H40.7314V27.208H32.3154V28.776H31.0034V26.312H39.4354V25.144H30.9714V24.2ZM31.0034 28.456H41.0034V29.416H31.0034V28.456ZM51.9566 25.256H53.0446V26.424C53.0446 29.064 51.4126 31.32 48.9966 32.216L48.3086 31.16C50.4686 30.392 51.9566 28.472 51.9566 26.424V25.256ZM52.2126 25.256H53.2846V26.424C53.2846 28.28 54.6926 30.088 56.7886 30.824L56.1166 31.88C53.7646 31.016 52.2126 28.84 52.2126 26.424V25.256ZM56.0046 27.544H59.2206V28.648H56.0046V27.544ZM48.7246 24.776H56.4526V25.848H48.7246V24.776ZM50.5166 33.224H60.1646V38.248H58.8366V34.312H50.5166V33.224ZM58.8366 23.784H60.1646V32.44H58.8366V23.784ZM66.2113 28.68H67.5233V31.416H66.2113V28.68ZM71.5233 28.68H72.8353V31.416H71.5233V28.68ZM62.9793 30.936H76.0513V32.008H62.9793V30.936ZM69.5073 33.096C72.6113 33.096 74.4673 34.008 74.4673 35.656C74.4673 37.304 72.6113 38.232 69.5073 38.232C66.4033 38.232 64.5473 37.304 64.5473 35.656C64.5473 34.008 66.4033 33.096 69.5073 33.096ZM69.5073 34.12C67.2513 34.12 65.8913 34.68 65.8913 35.656C65.8913 36.648 67.2513 37.192 69.5073 37.192C71.7793 37.192 73.1233 36.648 73.1233 35.656C73.1233 34.68 71.7793 34.12 69.5073 34.12ZM69.5233 24.04C72.6593 24.04 74.6113 25.048 74.6113 26.744C74.6113 28.424 72.6593 29.416 69.5233 29.416C66.3713 29.416 64.4353 28.424 64.4353 26.744C64.4353 25.048 66.3713 24.04 69.5233 24.04ZM69.5233 25.08C67.2193 25.08 65.7953 25.688 65.7953 26.744C65.7953 27.784 67.2193 28.392 69.5233 28.392C71.8273 28.392 73.2513 27.784 73.2513 26.744C73.2513 25.688 71.8273 25.08 69.5233 25.08ZM87.5061 23.784H88.8341V38.248H87.5061V23.784ZM88.5141 29.72H91.2021V30.84H88.5141V29.72ZM77.6341 26.088H86.1621V27.176H77.6341V26.088ZM81.9541 28.376C84.0021 28.376 85.4741 29.752 85.4741 31.704C85.4741 33.656 84.0021 35.032 81.9541 35.032C79.9221 35.032 78.4341 33.656 78.4341 31.704C78.4341 29.752 79.9221 28.376 81.9541 28.376ZM81.9541 29.48C80.6421 29.48 79.6981 30.392 79.6981 31.704C79.6981 33 80.6421 33.928 81.9541 33.928C83.2661 33.928 84.2101 33 84.2101 31.704C84.2101 30.392 83.2661 29.48 81.9541 29.48ZM81.2661 23.96H82.5941V26.584H81.2661V23.96ZM96.2408 25.032H97.3288V27.624C97.3288 30.952 95.5368 34.04 93.1688 35.24L92.3528 34.152C94.4968 33.128 96.2408 30.36 96.2408 27.624V25.032ZM96.4648 25.032H97.5528V27.624C97.5528 30.264 99.2808 32.92 101.425 33.912L100.625 34.968C98.2728 33.816 96.4648 30.84 96.4648 27.624V25.032ZM102.929 23.768H104.257V38.264H102.929V23.768ZM112.16 24.84H113.488C113.488 28.296 111.568 30.888 107.952 32.424L107.28 31.448C110.464 30.136 112.16 28.008 112.16 25.272V24.84ZM107.904 24.84H112.672V25.944H107.904V24.84ZM118.064 23.784H119.328V32.136H118.064V23.784ZM112 27.896H115.488V28.968H112V27.896ZM115.2 24.088H116.448V31.912H115.2V24.088ZM110.896 32.632H111.92V33.576C111.92 35.48 110.72 37.4 108.64 38.2L107.984 37.208C109.792 36.552 110.896 34.984 110.896 33.576V32.632ZM111.184 32.632H112.176V33.576C112.176 35.048 113.024 36.6 114.768 37.336L114.208 38.328C112.112 37.496 111.184 35.512 111.184 33.576V32.632ZM116.208 32.632H117.2V33.576C117.2 35.288 116.256 37.448 114.208 38.328L113.616 37.336C115.36 36.536 116.208 34.824 116.208 33.576V32.632ZM116.48 32.632H117.504V33.576C117.504 35.096 118.592 36.6 120.416 37.208L119.76 38.2C117.664 37.432 116.48 35.592 116.48 33.576V32.632ZM125.726 24.888C127.822 24.888 129.326 26.856 129.326 29.928C129.326 33.016 127.822 34.984 125.726 34.984C123.614 34.984 122.126 33.016 122.126 29.928C122.126 26.856 123.614 24.888 125.726 24.888ZM125.726 26.088C124.334 26.088 123.39 27.592 123.39 29.928C123.39 32.28 124.334 33.816 125.726 33.816C127.118 33.816 128.062 32.28 128.062 29.928C128.062 27.592 127.118 26.088 125.726 26.088ZM132.462 23.768H133.774V38.264H132.462V23.768ZM128.894 29.288H133.038V30.376H128.894V29.288ZM139.789 31.224H141.101V35.56H139.789V31.224ZM145.133 31.224H146.461V35.56H145.133V31.224ZM136.589 35.304H149.693V36.408H136.589V35.304ZM143.117 24.696C146.173 24.696 148.365 26.152 148.365 28.424C148.365 30.68 146.173 32.136 143.117 32.136C140.045 32.136 137.853 30.68 137.853 28.424C137.853 26.152 140.045 24.696 143.117 24.696ZM143.117 25.752C140.797 25.752 139.133 26.808 139.133 28.424C139.133 30.024 140.797 31.08 143.117 31.08C145.437 31.08 147.085 30.024 147.085 28.424C147.085 26.808 145.437 25.752 143.117 25.752ZM153.508 33.6534V33.5455C153.515 32.8409 153.585 32.2803 153.718 31.8636C153.854 31.447 154.048 31.1098 154.298 30.8523C154.548 30.5947 154.849 30.3598 155.201 30.1477C155.428 30.0038 155.633 29.8428 155.815 29.6648C155.996 29.4867 156.14 29.2822 156.246 29.0511C156.353 28.8201 156.406 28.5644 156.406 28.2841C156.406 27.947 156.326 27.6553 156.167 27.4091C156.008 27.1629 155.796 26.9735 155.531 26.8409C155.269 26.7045 154.978 26.6364 154.656 26.6364C154.364 26.6364 154.085 26.697 153.82 26.8182C153.555 26.9394 153.335 27.1288 153.161 27.3864C152.987 27.6402 152.887 27.9678 152.86 28.3693H151.133C151.159 27.6875 151.332 27.1117 151.65 26.642C151.968 26.1686 152.388 25.8106 152.911 25.5682C153.438 25.3258 154.019 25.2045 154.656 25.2045C155.353 25.2045 155.962 25.3352 156.485 25.5966C157.008 25.8542 157.413 26.2159 157.701 26.6818C157.993 27.1439 158.138 27.6837 158.138 28.3011C158.138 28.7254 158.072 29.108 157.94 29.4489C157.807 29.786 157.618 30.0871 157.371 30.3523C157.129 30.6174 156.837 30.8523 156.496 31.0568C156.174 31.2576 155.913 31.4659 155.712 31.6818C155.515 31.8977 155.371 32.1534 155.281 32.4489C155.19 32.7443 155.14 33.1098 155.133 33.5455V33.6534H153.508ZM154.366 37.108C154.055 37.108 153.788 36.9981 153.565 36.7784C153.341 36.5549 153.229 36.286 153.229 35.9716C153.229 35.661 153.341 35.3958 153.565 35.1761C153.788 34.9527 154.055 34.8409 154.366 34.8409C154.673 34.8409 154.938 34.9527 155.161 35.1761C155.388 35.3958 155.502 35.661 155.502 35.9716C155.502 36.1799 155.449 36.3712 155.343 36.5455C155.241 36.7159 155.104 36.8523 154.934 36.9545C154.763 37.0568 154.574 37.108 154.366 37.108Z" fill="#393939"/>
</svg>
