<svg width="159" height="43" viewBox="0 0 159 43" fill="none" xmlns="http://www.w3.org/2000/svg">
<rect width="158.295" height="42.6" rx="6" fill="#1FB832"/>
<path d="M68.7949 22.204H70.6569V24.066H68.7949V22.204ZM74.2829 16.296H76.1449V25.116H74.2829V16.296ZM75.4869 19.992H77.7689V21.518H75.4869V19.992ZM65.9109 24.864L65.7009 23.422C68.0249 23.422 71.0909 23.408 73.7089 23.086L73.8489 24.36C71.1469 24.822 68.1789 24.85 65.9109 24.864ZM67.3529 25.634H76.1449V29.246H74.2829V27.062H67.3529V25.634ZM66.0369 17.234H73.3869V18.564H66.0369V17.234ZM69.7189 18.872C71.6229 18.872 72.8689 19.614 72.8689 20.804C72.8689 21.994 71.6229 22.736 69.7189 22.736C67.8009 22.736 66.5549 21.994 66.5549 20.804C66.5549 19.614 67.8009 18.872 69.7189 18.872ZM69.7189 20.09C68.8369 20.09 68.3189 20.314 68.3189 20.804C68.3189 21.266 68.8369 21.518 69.7189 21.518C70.5869 21.518 71.1049 21.266 71.1049 20.804C71.1049 20.314 70.5869 20.09 69.7189 20.09ZM68.7949 16.184H70.6569V17.836H68.7949V16.184ZM87.6378 16.296H89.5138V25.606H87.6378V16.296ZM80.8758 27.538H89.8358V29.022H80.8758V27.538ZM80.8758 24.668H82.7378V28.14H80.8758V24.668ZM82.4578 17.108C84.4458 17.108 85.9718 18.48 85.9718 20.398C85.9718 22.302 84.4458 23.688 82.4578 23.688C80.4698 23.688 78.9298 22.302 78.9298 20.398C78.9298 18.48 80.4698 17.108 82.4578 17.108ZM82.4578 18.718C81.4918 18.718 80.7498 19.334 80.7498 20.398C80.7498 21.448 81.4918 22.064 82.4578 22.064C83.4098 22.064 84.1518 21.448 84.1518 20.398C84.1518 19.334 83.4098 18.718 82.4578 18.718Z" fill="white"/>
</svg>
