<svg width="31" height="31" viewBox="0 0 31 31" fill="none" xmlns="http://www.w3.org/2000/svg">
<circle cx="15.5" cy="15.5" r="15.5" fill="#FFCD29"/>
<circle cx="15.5" cy="15.5" r="15.5" fill="#FFCD29"/>
<circle cx="15.5" cy="15.5" r="15.5" fill="#FFCD29"/>
<circle cx="15.5" cy="15.5" r="15.5" fill="#FFC329"/>
<circle cx="15.2986" cy="15.7012" r="12.4805" fill="#FFCD29"/>
<circle cx="15.2986" cy="15.7012" r="12.4805" fill="#FFCD29"/>
<circle cx="15.2986" cy="15.7012" r="12.4805" fill="#FFCD29"/>
<circle cx="15.2986" cy="15.7012" r="12.4805" fill="#FFD966"/>
<path d="M11.4855 21.0389V9.32701H16.1062C16.9945 9.32701 17.7513 9.49667 18.3765 9.83598C19.0018 10.1715 19.4783 10.6385 19.8062 11.2371C20.1379 11.8318 20.3037 12.5181 20.3037 13.2958C20.3037 14.0735 20.136 14.7598 19.8005 15.3545C19.465 15.9493 18.9789 16.4125 18.3422 16.7442C17.7093 17.0759 16.943 17.2417 16.0433 17.2417H13.0981V15.2573H15.643C16.1195 15.2573 16.5122 15.1754 16.821 15.0114C17.1336 14.8437 17.3662 14.613 17.5187 14.3195C17.675 14.0221 17.7532 13.6809 17.7532 13.2958C17.7532 12.9069 17.675 12.5676 17.5187 12.2779C17.3662 11.9843 17.1336 11.7575 16.821 11.5973C16.5084 11.4334 16.1119 11.3514 15.6315 11.3514H13.9617V21.0389H11.4855Z" fill="#FFB905"/>
</svg>
